SplineFontDB: 3.2
FontName: PixelX16
FullName: Pixel X16 Modified
FamilyName: Pixel X16
Weight: Bold
Copyright: Copyright (c) 2020, Felix Yancey
UComments: "2020-8-8: Created with FontForge (http://fontforge.org)"
Version: 1.0.0
ItalicAngle: 0
UnderlinePosition: 0
UnderlineWidth: 0
Ascent: 13
Descent: 3
InvalidEm: 0
LayerCount: 2
Layer: 0 0 "Back" 1
Layer: 1 0 "Fore" 0
XUID: [1021 914 -1260934082 1356364]
FSType: 0
OS2Version: 0
OS2_WeightWidthSlopeOnly: 0
OS2_UseTypoMetrics: 1
CreationTime: 1596860876
ModificationTime: 1607463824
PfmFamily: 33
TTFWeight: 400
TTFWidth: 5
LineGap: 0
VLineGap: 0
OS2TypoAscent: 0
OS2TypoAOffset: 1
OS2TypoDescent: 0
OS2TypoDOffset: 1
OS2TypoLinegap: 0
OS2WinAscent: 0
OS2WinAOffset: 1
OS2WinDescent: 0
OS2WinDOffset: 1
HheadAscent: 0
HheadAOffset: 1
HheadDescent: 0
HheadDOffset: 1
OS2Vendor: 'PfEd'
MarkAttachClasses: 1
DEI: 91125
LangName: 1033
Encoding: ISO8859-1
UnicodeInterp: none
NameList: AGL For New Fonts
DisplaySize: -48
AntiAlias: 1
FitToEm: 0
WinInfo: 64 16 4
BeginPrivate: 0
EndPrivate
TeXData: 1 0 0 1048576 524288 349525 0 1048576 349525 783286 444596 497025 792723 393216 433062 380633 303038 157286 324010 404750 52429 2506097 1059062 262144
BeginChars: 256 95

StartChar: exclam
Encoding: 33 33 1
Width: 4
Flags: HW
LayerCount: 2
Fore
SplineSet
1 2 m 25
 3 2 l 25
 3 0 l 25
 1 0 l 25
 1 2 l 25
1 12 m 25
 3 12 l 25
 3 4 l 25
 1 4 l 25
 1 12 l 25
EndSplineSet
Validated: 1
EndChar

StartChar: parenleft
Encoding: 40 40 2
Width: 6
Flags: HW
LayerCount: 2
Fore
SplineSet
1 9 m 25
 2 9 l 25
 2 11 l 25
 3 11 l 25
 3 12 l 25
 5 12 l 25
 5 10 l 25
 4 10 l 25
 4 8 l 25
 3 8 l 25
 3 4 l 25
 4 4 l 25
 4 2 l 25
 5 2 l 25
 5 0 l 25
 3 0 l 25
 3 1 l 25
 2 1 l 25
 2 3 l 25
 1 3 l 25
 1 9 l 25
EndSplineSet
Validated: 1
EndChar

StartChar: parenright
Encoding: 41 41 3
Width: 6
Flags: HW
LayerCount: 2
Fore
SplineSet
1 12 m 25
 3 12 l 25
 3 11 l 25
 4 11 l 25
 4 9 l 25
 5 9 l 25
 5 3 l 25
 4 3 l 25
 4 1 l 25
 3 1 l 25
 3 0 l 25
 1 0 l 25
 1 2 l 25
 2 2 l 25
 2 4 l 25
 3 4 l 25
 3 8 l 25
 2 8 l 25
 2 10 l 25
 1 10 l 25
 1 12 l 25
EndSplineSet
Validated: 1
EndChar

StartChar: percent
Encoding: 37 37 4
Width: 14
Flags: HW
LayerCount: 2
Fore
SplineSet
10 4 m 25
 10 1 l 25
 11 1 l 25
 11 4 l 25
 10 4 l 25
8 4 m 25
 9 4 l 25
 9 5 l 25
 12 5 l 25
 12 4 l 25
 13 4 l 25
 13 1 l 25
 12 1 l 25
 12 0 l 25
 9 0 l 25
 9 1 l 25
 8 1 l 25
 8 4 l 25
3 11 m 25
 3 8 l 25
 4 8 l 25
 4 11 l 25
 3 11 l 25
1 11 m 25
 2 11 l 25
 2 12 l 25
 5 12 l 25
 5 11 l 25
 6 11 l 25
 6 8 l 25
 5 8 l 25
 5 7 l 25
 2 7 l 25
 2 8 l 25
 1 8 l 25
 1 11 l 25
1 2 m 25
 2 2 l 25
 2 3 l 25
 3 3 l 25
 3 4 l 25
 4 4 l 25
 4 5 l 25
 5 5 l 25
 5 6 l 25
 6 6 l 25
 6 7 l 25
 7 7 l 25
 7 8 l 25
 8 8 l 25
 8 9 l 25
 9 9 l 25
 9 10 l 25
 10 10 l 25
 10 11 l 25
 11 11 l 25
 11 12 l 25
 13 12 l 25
 13 10 l 25
 12 10 l 25
 12 9 l 25
 11 9 l 25
 11 8 l 25
 10 8 l 25
 10 7 l 25
 9 7 l 25
 9 6 l 25
 8 6 l 25
 8 5 l 25
 7 5 l 25
 7 4 l 25
 6 4 l 25
 6 3 l 25
 5 3 l 25
 5 2 l 25
 4 2 l 25
 4 1 l 25
 3 1 l 25
 3 0 l 25
 1 0 l 25
 1 2 l 25
EndSplineSet
Validated: 1
EndChar

StartChar: quotesingle
Encoding: 39 39 5
Width: 4
Flags: HW
LayerCount: 2
Fore
SplineSet
1 12 m 25
 3 12 l 25
 3 7 l 25
 1 7 l 25
 1 12 l 25
EndSplineSet
Validated: 1
EndChar

StartChar: quotedbl
Encoding: 34 34 6
Width: 7
Flags: HW
LayerCount: 2
Fore
SplineSet
4 12 m 25
 6 12 l 25
 6 7 l 25
 4 7 l 25
 4 12 l 25
1 12 m 25
 3 12 l 25
 3 7 l 25
 1 7 l 25
 1 12 l 25
EndSplineSet
Validated: 1
EndChar

StartChar: numbersign
Encoding: 35 35 7
Width: 13
Flags: HW
LayerCount: 2
Fore
SplineSet
5 8 m 25
 5 4 l 25
 8 4 l 25
 8 8 l 25
 5 8 l 25
1 10 m 25
 3 10 l 25
 3 12 l 25
 5 12 l 25
 5 10 l 25
 8 10 l 25
 8 12 l 25
 10 12 l 25
 10 10 l 25
 12 10 l 25
 12 8 l 25
 10 8 l 25
 10 4 l 25
 12 4 l 25
 12 2 l 25
 10 2 l 25
 10 0 l 25
 8 0 l 25
 8 2 l 25
 5 2 l 25
 5 0 l 25
 3 0 l 25
 3 2 l 25
 1 2 l 25
 1 4 l 25
 3 4 l 25
 3 8 l 25
 1 8 l 25
 1 10 l 25
EndSplineSet
Validated: 1
EndChar

StartChar: dollar
Encoding: 36 36 8
Width: 12
Flags: HW
LayerCount: 2
Fore
SplineSet
7 5 m 25
 7 2 l 25
 8 2 l 25
 8 3 l 25
 9 3 l 25
 9 4 l 25
 8 4 l 25
 8 5 l 25
 7 5 l 25
3 9 m 25
 3 8 l 25
 4 8 l 25
 4 7 l 25
 5 7 l 25
 5 10 l 25
 4 10 l 25
 4 9 l 25
 3 9 l 25
1 10 m 25
 2 10 l 25
 2 11 l 25
 3 11 l 25
 3 12 l 25
 5 12 l 25
 5 13 l 25
 7 13 l 25
 7 12 l 25
 9 12 l 25
 9 11 l 25
 10 11 l 25
 10 10 l 25
 11 10 l 25
 11 8 l 25
 9 8 l 25
 9 9 l 25
 8 9 l 25
 8 10 l 25
 7 10 l 25
 7 7 l 25
 9 7 l 25
 9 6 l 25
 10 6 l 25
 10 5 l 25
 11 5 l 25
 11 2 l 25
 10 2 l 25
 10 1 l 25
 9 1 l 25
 9 0 l 25
 7 0 l 25
 7 -1 l 25
 5 -1 l 25
 5 0 l 25
 3 0 l 25
 3 1 l 25
 2 1 l 25
 2 2 l 25
 1 2 l 25
 1 4 l 25
 3 4 l 25
 3 3 l 25
 4 3 l 25
 4 2 l 25
 5 2 l 25
 5 5 l 25
 3 5 l 25
 3 6 l 25
 2 6 l 25
 2 7 l 25
 1 7 l 25
 1 10 l 25
EndSplineSet
Validated: 1
EndChar

StartChar: ampersand
Encoding: 38 38 9
Width: 12
Flags: HW
LayerCount: 2
Fore
SplineSet
3 4 m 25
 3 3 l 25
 4 3 l 25
 4 2 l 25
 7 2 l 25
 7 3 l 25
 6 3 l 25
 6 4 l 25
 5 4 l 25
 5 5 l 25
 4 5 l 25
 4 4 l 25
 3 4 l 25
4 9 m 25
 4 8 l 25
 5 8 l 25
 5 7 l 25
 6 7 l 25
 6 8 l 25
 7 8 l 25
 7 9 l 25
 6 9 l 25
 6 10 l 25
 5 10 l 25
 5 9 l 25
 4 9 l 25
2 10 m 25
 3 10 l 25
 3 11 l 25
 4 11 l 25
 4 12 l 25
 7 12 l 25
 7 11 l 25
 8 11 l 25
 8 10 l 25
 9 10 l 25
 9 7 l 25
 8 7 l 25
 8 6 l 25
 7 6 l 25
 7 5 l 25
 8 5 l 25
 8 4 l 25
 9 4 l 25
 9 6 l 25
 11 6 l 25
 11 3 l 25
 10 3 l 25
 10 2 l 25
 11 2 l 25
 11 0 l 25
 9 0 l 25
 9 1 l 25
 8 1 l 25
 8 0 l 25
 3 0 l 25
 3 1 l 25
 2 1 l 25
 2 2 l 25
 1 2 l 25
 1 5 l 25
 2 5 l 25
 2 6 l 25
 3 6 l 25
 3 7 l 25
 2 7 l 25
 2 10 l 25
EndSplineSet
Validated: 1
EndChar

StartChar: asterisk
Encoding: 42 42 10
Width: 12
Flags: HW
LayerCount: 2
Fore
SplineSet
1 10 m 25
 3 10 l 25
 3 9 l 25
 4 9 l 25
 4 8 l 25
 5 8 l 25
 5 11 l 25
 7 11 l 25
 7 8 l 25
 8 8 l 25
 8 9 l 25
 9 9 l 25
 9 10 l 25
 11 10 l 25
 11 8 l 25
 10 8 l 25
 10 7 l 25
 9 7 l 25
 9 6 l 25
 8 6 l 25
 8 5 l 25
 9 5 l 25
 9 4 l 25
 10 4 l 25
 10 3 l 25
 11 3 l 25
 11 1 l 25
 9 1 l 25
 9 2 l 25
 8 2 l 25
 8 3 l 25
 7 3 l 25
 7 0 l 25
 5 0 l 25
 5 3 l 25
 4 3 l 25
 4 2 l 25
 3 2 l 25
 3 1 l 25
 1 1 l 25
 1 3 l 25
 2 3 l 25
 2 4 l 25
 3 4 l 25
 3 5 l 25
 4 5 l 25
 4 6 l 25
 3 6 l 25
 3 7 l 25
 2 7 l 25
 2 8 l 25
 1 8 l 25
 1 10 l 25
EndSplineSet
Validated: 1
EndChar

StartChar: plus
Encoding: 43 43 11
Width: 10
Flags: HW
LayerCount: 2
Fore
SplineSet
1 8 m 25
 4 8 l 25
 4 11 l 25
 6 11 l 25
 6 8 l 25
 9 8 l 25
 9 6 l 25
 6 6 l 25
 6 3 l 25
 4 3 l 25
 4 6 l 25
 1 6 l 25
 1 8 l 25
EndSplineSet
Validated: 1
EndChar

StartChar: comma
Encoding: 44 44 12
Width: 4
Flags: HW
LayerCount: 2
Fore
SplineSet
0 2 m 29
 1 2 l 29
 1 4 l 29
 3 4 l 29
 3 1 l 29
 2 1 l 29
 2 -1 l 29
 0 -1 l 29
 0 2 l 29
EndSplineSet
Validated: 1
EndChar

StartChar: hyphen
Encoding: 45 45 13
Width: 10
Flags: HW
LayerCount: 2
Fore
SplineSet
1 7 m 29
 9 7 l 29
 9 5 l 29
 1 5 l 29
 1 7 l 29
EndSplineSet
Validated: 1
EndChar

StartChar: period
Encoding: 46 46 14
Width: 4
Flags: HW
LayerCount: 2
Fore
SplineSet
1 2 m 25
 3 2 l 25
 3 0 l 25
 1 0 l 25
 1 2 l 25
EndSplineSet
Validated: 1
EndChar

StartChar: slash
Encoding: 47 47 15
Width: 10
Flags: HW
LayerCount: 2
Fore
SplineSet
1 3 m 25
 2 3 l 25
 2 4 l 25
 3 4 l 25
 3 6 l 25
 4 6 l 25
 4 7 l 25
 5 7 l 25
 5 9 l 25
 6 9 l 25
 6 10 l 25
 7 10 l 25
 7 12 l 25
 9 12 l 25
 9 9 l 25
 8 9 l 25
 8 8 l 25
 7 8 l 25
 7 6 l 25
 6 6 l 25
 6 5 l 25
 5 5 l 25
 5 3 l 25
 4 3 l 25
 4 2 l 25
 3 2 l 25
 3 0 l 25
 1 0 l 25
 1 3 l 25
EndSplineSet
Validated: 1
EndChar

StartChar: zero
Encoding: 48 48 16
Width: 11
Flags: HW
LayerCount: 2
Fore
SplineSet
5 3 m 25
 5 2 l 25
 7 2 l 25
 7 3 l 25
 8 3 l 25
 8 8 l 25
 7 8 l 25
 7 6 l 25
 6 6 l 25
 6 3 l 25
 5 3 l 25
3 9 m 25
 3 4 l 25
 4 4 l 25
 4 6 l 25
 5 6 l 25
 5 9 l 25
 6 9 l 25
 6 10 l 25
 4 10 l 25
 4 9 l 25
 3 9 l 25
1 10 m 25
 2 10 l 25
 2 11 l 25
 3 11 l 25
 3 12 l 25
 8 12 l 25
 8 11 l 25
 9 11 l 25
 9 10 l 25
 10 10 l 25
 10 2 l 25
 9 2 l 25
 9 1 l 25
 8 1 l 25
 8 0 l 25
 3 0 l 25
 3 1 l 25
 2 1 l 25
 2 2 l 25
 1 2 l 25
 1 10 l 25
EndSplineSet
Validated: 1
EndChar

StartChar: A
Encoding: 65 65 17
Width: 13
Flags: HW
LayerCount: 2
Fore
SplineSet
5 8 m 25
 5 6 l 29
 8 6 l 29
 8 8 l 25
 7 8 l 25
 7 9 l 25
 6 9 l 25
 6 8 l 25
 5 8 l 25
1 3 m 29
 2 3 l 29
 2 5 l 29
 3 5 l 29
 3 8 l 25
 4 8 l 25
 4 10 l 25
 5 10 l 25
 5 12 l 25
 8 12 l 25
 8 10 l 25
 9 10 l 25
 9 8 l 25
 10 8 l 25
 10 5 l 29
 11 5 l 29
 11 3 l 29
 12 3 l 29
 12 0 l 25
 10 0 l 25
 10 2 l 29
 9 2 l 29
 9 4 l 29
 4 4 l 29
 4 2 l 29
 3 2 l 29
 3 0 l 25
 1 0 l 25
 1 3 l 29
EndSplineSet
Validated: 1
EndChar

StartChar: grave
Encoding: 96 96 18
Width: 7
Flags: HW
LayerCount: 2
Fore
SplineSet
1 12 m 25
 3 12 l 25
 3 11 l 25
 4 11 l 25
 4 10 l 25
 5 10 l 25
 5 9 l 25
 6 9 l 25
 6 7 l 25
 4 7 l 25
 4 8 l 25
 3 8 l 25
 3 9 l 25
 2 9 l 25
 2 10 l 25
 1 10 l 25
 1 12 l 25
EndSplineSet
Validated: 1
EndChar

StartChar: a
Encoding: 97 97 19
Width: 10
Flags: HW
LayerCount: 2
Fore
SplineSet
3 6 m 25
 3 2 l 25
 5 2 l 25
 5 3 l 25
 6 3 l 25
 6 6 l 25
 3 6 l 25
1 7 m 25
 2 7 l 25
 2 8 l 25
 6 8 l 25
 6 9 l 25
 8 9 l 25
 8 2 l 25
 9 2 l 25
 9 0 l 25
 7 0 l 25
 7 1 l 25
 6 1 l 25
 6 0 l 25
 2 0 l 25
 2 1 l 25
 1 1 l 25
 1 7 l 25
EndSplineSet
Validated: 1
EndChar

StartChar: b
Encoding: 98 98 20
Width: 9
Flags: HW
LayerCount: 2
Fore
SplineSet
3 6 m 25
 3 2 l 25
 6 2 l 25
 6 6 l 25
 3 6 l 25
1 12 m 25
 3 12 l 25
 3 8 l 25
 7 8 l 25
 7 7 l 25
 8 7 l 25
 8 1 l 25
 7 1 l 25
 7 0 l 25
 1 0 l 25
 1 12 l 25
EndSplineSet
Validated: 1
EndChar

StartChar: c
Encoding: 99 99 21
Width: 9
Flags: HW
LayerCount: 2
Fore
SplineSet
1 7 m 25
 2 7 l 25
 2 8 l 25
 7 8 l 25
 7 7 l 25
 8 7 l 25
 8 5 l 25
 6 5 l 25
 6 6 l 25
 3 6 l 25
 3 2 l 25
 6 2 l 25
 6 3 l 25
 8 3 l 25
 8 1 l 25
 7 1 l 25
 7 0 l 25
 2 0 l 25
 2 1 l 25
 1 1 l 25
 1 7 l 25
EndSplineSet
Validated: 1
EndChar

StartChar: d
Encoding: 100 100 22
Width: 9
Flags: HW
LayerCount: 2
Fore
SplineSet
3 6 m 25
 3 2 l 25
 6 2 l 25
 6 6 l 25
 3 6 l 25
1 7 m 25
 2 7 l 25
 2 8 l 25
 6 8 l 25
 6 12 l 25
 8 12 l 25
 8 0 l 25
 2 0 l 25
 2 1 l 25
 1 1 l 25
 1 7 l 25
EndSplineSet
Validated: 1
EndChar

StartChar: e
Encoding: 101 101 23
Width: 9
Flags: HW
LayerCount: 2
Fore
SplineSet
3 6 m 25
 3 5 l 25
 6 5 l 25
 6 6 l 25
 3 6 l 25
1 7 m 25
 2 7 l 25
 2 8 l 25
 7 8 l 25
 7 7 l 25
 8 7 l 25
 8 4 l 25
 7 4 l 25
 7 3 l 25
 3 3 l 25
 3 2 l 25
 8 2 l 25
 8 1 l 25
 7 1 l 25
 7 0 l 25
 2 0 l 25
 2 1 l 25
 1 1 l 25
 1 7 l 25
EndSplineSet
Validated: 1
EndChar

StartChar: f
Encoding: 102 102 24
Width: 10
Flags: HW
LayerCount: 2
Fore
SplineSet
1 8 m 25
 3 8 l 25
 3 11 l 25
 4 11 l 25
 4 12 l 25
 8 12 l 25
 8 11 l 25
 9 11 l 25
 9 9 l 25
 7 9 l 25
 7 10 l 25
 5 10 l 25
 5 8 l 25
 7 8 l 25
 7 6 l 25
 5 6 l 25
 5 0 l 25
 3 0 l 25
 3 6 l 25
 1 6 l 25
 1 8 l 25
EndSplineSet
Validated: 1
EndChar

StartChar: g
Encoding: 103 103 25
Width: 9
Flags: HW
LayerCount: 2
Fore
SplineSet
3 6 m 25
 3 3 l 25
 6 3 l 25
 6 6 l 25
 3 6 l 25
1 7 m 25
 2 7 l 25
 2 8 l 25
 6 8 l 25
 6 9 l 25
 8 9 l 1
 8 -2 l 25
 7 -2 l 25
 7 -3 l 25
 2 -3 l 25
 2 -2 l 25
 1 -2 l 25
 1 0 l 25
 3 0 l 25
 3 -1 l 25
 6 -1 l 25
 6 1 l 25
 2 1 l 25
 2 2 l 25
 1 2 l 25
 1 7 l 25
EndSplineSet
Validated: 1
EndChar

StartChar: h
Encoding: 104 104 26
Width: 9
Flags: HW
LayerCount: 2
Fore
SplineSet
1 12 m 25
 3 12 l 25
 3 7 l 25
 4 7 l 25
 4 8 l 25
 7 8 l 25
 7 7 l 25
 8 7 l 25
 8 0 l 25
 6 0 l 25
 6 6 l 25
 4 6 l 25
 4 5 l 25
 3 5 l 25
 3 0 l 25
 1 0 l 25
 1 12 l 25
EndSplineSet
Validated: 1
EndChar

StartChar: i
Encoding: 105 105 27
Width: 4
Flags: HW
LayerCount: 2
Fore
SplineSet
1 12 m 25
 3 12 l 25
 3 10 l 25
 1 10 l 25
 1 12 l 25
1 8 m 25
 3 8 l 25
 3 0 l 25
 1 0 l 25
 1 8 l 25
EndSplineSet
Validated: 1
EndChar

StartChar: j
Encoding: 106 106 28
Width: 8
Flags: HW
LayerCount: 2
Fore
SplineSet
5 12 m 25
 7 12 l 25
 7 10 l 25
 5 10 l 25
 5 12 l 25
1 1 m 25
 3 1 l 25
 3 -1 l 25
 5 -1 l 25
 5 8 l 25
 7 8 l 25
 7 -2 l 25
 6 -2 l 25
 6 -3 l 25
 2 -3 l 25
 2 -2 l 25
 1 -2 l 25
 1 1 l 25
EndSplineSet
Validated: 1
EndChar

StartChar: k
Encoding: 107 107 29
Width: 9
Flags: HW
LayerCount: 2
Fore
SplineSet
1 12 m 25
 3 12 l 25
 3 5 l 25
 4 5 l 25
 4 6 l 25
 5 6 l 25
 5 7 l 25
 6 7 l 25
 6 8 l 25
 8 8 l 25
 8 6 l 25
 7 6 l 25
 7 5 l 25
 6 5 l 25
 6 3 l 25
 7 3 l 25
 7 2 l 25
 8 2 l 25
 8 0 l 25
 6 0 l 25
 6 1 l 25
 5 1 l 25
 5 2 l 25
 4 2 l 25
 4 3 l 25
 3 3 l 25
 3 0 l 25
 1 0 l 25
 1 12 l 25
EndSplineSet
Validated: 1
EndChar

StartChar: l
Encoding: 108 108 30
Width: 5
Flags: HW
LayerCount: 2
Fore
SplineSet
1 12 m 25
 3 12 l 25
 3 2 l 25
 4 2 l 25
 4 0 l 25
 2 0 l 25
 2 1 l 25
 1 1 l 25
 1 12 l 25
EndSplineSet
Validated: 1
EndChar

StartChar: m
Encoding: 109 109 31
Width: 13
Flags: HW
LayerCount: 2
Fore
SplineSet
1 9 m 25
 3 9 l 25
 3 7 l 25
 4 7 l 25
 4 8 l 25
 7 8 l 25
 7 7 l 25
 8 7 l 25
 8 8 l 25
 11 8 l 25
 11 7 l 25
 12 7 l 25
 12 0 l 25
 10 0 l 25
 10 6 l 25
 8 6 l 25
 8 0 l 25
 6 0 l 25
 6 6 l 25
 4 6 l 25
 4 5 l 25
 3 5 l 25
 3 0 l 25
 1 0 l 25
 1 9 l 25
EndSplineSet
Validated: 1
EndChar

StartChar: n
Encoding: 110 110 32
Width: 9
Flags: HW
LayerCount: 2
Fore
SplineSet
1 9 m 25
 3 9 l 25
 3 7 l 25
 4 7 l 25
 4 8 l 25
 7 8 l 25
 7 7 l 25
 8 7 l 25
 8 0 l 25
 6 0 l 25
 6 6 l 25
 4 6 l 25
 4 5 l 25
 3 5 l 25
 3 0 l 25
 1 0 l 25
 1 9 l 25
EndSplineSet
Validated: 1
EndChar

StartChar: o
Encoding: 111 111 33
Width: 9
Flags: HW
LayerCount: 2
Fore
SplineSet
3 6 m 25
 3 2 l 25
 6 2 l 25
 6 6 l 25
 3 6 l 25
1 7 m 25
 2 7 l 25
 2 8 l 25
 7 8 l 25
 7 7 l 25
 8 7 l 25
 8 1 l 25
 7 1 l 25
 7 0 l 25
 2 0 l 25
 2 1 l 25
 1 1 l 25
 1 7 l 25
EndSplineSet
Validated: 1
EndChar

StartChar: p
Encoding: 112 112 34
Width: 9
Flags: HW
LayerCount: 2
Fore
SplineSet
3 6 m 25
 3 3 l 25
 6 3 l 25
 6 6 l 25
 3 6 l 25
1 9 m 25
 3 9 l 25
 3 8 l 25
 7 8 l 25
 7 7 l 25
 8 7 l 25
 8 2 l 25
 7 2 l 25
 7 1 l 25
 3 1 l 25
 3 -3 l 25
 1 -3 l 25
 1 9 l 25
EndSplineSet
Validated: 1
EndChar

StartChar: q
Encoding: 113 113 35
Width: 12
Flags: HW
LayerCount: 2
Fore
SplineSet
3 6 m 25
 3 3 l 25
 6 3 l 25
 6 6 l 25
 3 6 l 25
1 7 m 25
 2 7 l 25
 2 8 l 25
 6 8 l 25
 6 9 l 25
 8 9 l 25
 8 -1 l 25
 9 -1 l 25
 9 1 l 25
 11 1 l 25
 11 -2 l 25
 10 -2 l 25
 10 -3 l 25
 7 -3 l 25
 7 -2 l 25
 6 -2 l 25
 6 1 l 25
 2 1 l 25
 2 2 l 25
 1 2 l 25
 1 7 l 25
EndSplineSet
Validated: 1
EndChar

StartChar: r
Encoding: 114 114 36
Width: 8
Flags: HW
LayerCount: 2
Fore
SplineSet
1 9 m 25
 3 9 l 25
 3 7 l 25
 4 7 l 25
 4 8 l 25
 7 8 l 25
 7 6 l 25
 4 6 l 25
 4 5 l 25
 3 5 l 25
 3 0 l 25
 1 0 l 25
 1 9 l 25
EndSplineSet
Validated: 1
EndChar

StartChar: s
Encoding: 115 115 37
Width: 9
Flags: HW
LayerCount: 2
Fore
SplineSet
1 7 m 25
 2 7 l 25
 2 8 l 25
 8 8 l 25
 8 6 l 25
 3 6 l 25
 3 5 l 25
 7 5 l 25
 7 4 l 25
 8 4 l 25
 8 1 l 25
 7 1 l 25
 7 0 l 25
 1 0 l 25
 1 2 l 25
 6 2 l 25
 6 3 l 25
 2 3 l 25
 2 4 l 25
 1 4 l 25
 1 7 l 25
EndSplineSet
Validated: 1
EndChar

StartChar: t
Encoding: 116 116 38
Width: 10
Flags: HW
LayerCount: 2
Fore
SplineSet
1 8 m 25
 4 8 l 25
 4 12 l 25
 6 12 l 25
 6 8 l 25
 9 8 l 25
 9 6 l 25
 6 6 l 25
 6 0 l 25
 4 0 l 25
 4 6 l 25
 1 6 l 25
 1 8 l 25
EndSplineSet
Validated: 1
EndChar

StartChar: u
Encoding: 117 117 39
Width: 10
Flags: HW
LayerCount: 2
Fore
SplineSet
1 8 m 25
 3 8 l 25
 3 2 l 25
 5 2 l 25
 5 3 l 25
 6 3 l 25
 6 8 l 25
 8 8 l 25
 8 2 l 25
 9 2 l 25
 9 0 l 25
 7 0 l 25
 7 1 l 25
 6 1 l 25
 6 0 l 25
 2 0 l 25
 2 1 l 25
 1 1 l 25
 1 8 l 25
EndSplineSet
Validated: 1
EndChar

StartChar: v
Encoding: 118 118 40
Width: 9
Flags: HW
LayerCount: 2
Fore
SplineSet
1 8 m 29
 3 8 l 25
 3 6 l 25
 4 6 l 25
 4 4 l 25
 5 4 l 25
 5 6 l 25
 6 6 l 25
 6 8 l 25
 8 8 l 25
 8 5 l 25
 7 5 l 25
 7 3 l 25
 6 3 l 25
 6 1 l 25
 5 1 l 25
 5 0 l 25
 4 0 l 25
 4 1 l 25
 3 1 l 25
 3 3 l 25
 2 3 l 25
 2 5 l 25
 1 5 l 25
 1 8 l 29
EndSplineSet
Validated: 1
EndChar

StartChar: w
Encoding: 119 119 41
Width: 13
Flags: HW
LayerCount: 2
Fore
SplineSet
1 8 m 25
 3 8 l 25
 3 5 l 25
 4 5 l 25
 4 3 l 25
 5 3 l 25
 5 5 l 25
 6 5 l 25
 6 6 l 25
 7 6 l 25
 7 5 l 25
 8 5 l 25
 8 3 l 25
 9 3 l 25
 9 5 l 25
 10 5 l 25
 10 8 l 25
 12 8 l 25
 12 4 l 25
 11 4 l 25
 11 2 l 25
 10 2 l 25
 10 0 l 25
 8 0 l 25
 8 1 l 25
 7 1 l 25
 7 2 l 25
 6 2 l 25
 6 1 l 25
 5 1 l 25
 5 0 l 25
 3 0 l 25
 3 2 l 25
 2 2 l 25
 2 4 l 25
 1 4 l 25
 1 8 l 25
EndSplineSet
Validated: 1
EndChar

StartChar: x
Encoding: 120 120 42
Width: 9
Flags: HW
LayerCount: 2
Fore
SplineSet
1 8 m 25
 3 8 l 25
 3 7 l 25
 4 7 l 25
 4 6 l 25
 5 6 l 25
 5 7 l 25
 6 7 l 25
 6 8 l 25
 8 8 l 25
 8 6 l 25
 7 6 l 25
 7 5 l 25
 6 5 l 25
 6 3 l 25
 7 3 l 25
 7 2 l 25
 8 2 l 25
 8 0 l 25
 6 0 l 25
 6 1 l 25
 5 1 l 25
 5 2 l 25
 4 2 l 25
 4 1 l 25
 3 1 l 25
 3 0 l 25
 1 0 l 25
 1 2 l 25
 2 2 l 25
 2 3 l 25
 3 3 l 25
 3 5 l 25
 2 5 l 25
 2 6 l 25
 1 6 l 25
 1 8 l 25
EndSplineSet
Validated: 1
EndChar

StartChar: y
Encoding: 121 121 43
Width: 9
Flags: HW
LayerCount: 2
Fore
SplineSet
1 8 m 25
 3 8 l 25
 3 3 l 25
 6 3 l 25
 6 8 l 25
 8 8 l 25
 8 -2 l 25
 7 -2 l 25
 7 -3 l 25
 2 -3 l 25
 2 -2 l 25
 1 -2 l 25
 1 0 l 25
 3 0 l 25
 3 -1 l 25
 6 -1 l 25
 6 1 l 25
 2 1 l 25
 2 2 l 25
 1 2 l 25
 1 8 l 25
EndSplineSet
Validated: 1
EndChar

StartChar: z
Encoding: 122 122 44
Width: 10
Flags: HW
LayerCount: 2
Fore
SplineSet
1 8 m 25
 9 8 l 25
 9 6 l 25
 8 6 l 25
 8 5 l 25
 7 5 l 25
 7 4 l 25
 6 4 l 25
 6 3 l 25
 5 3 l 25
 5 2 l 25
 9 2 l 25
 9 0 l 25
 1 0 l 25
 1 2 l 25
 2 2 l 25
 2 3 l 25
 3 3 l 25
 3 4 l 25
 4 4 l 25
 4 5 l 25
 5 5 l 25
 5 6 l 25
 1 6 l 25
 1 8 l 25
EndSplineSet
Validated: 1
EndChar

StartChar: braceleft
Encoding: 123 123 45
Width: 7
Flags: HW
LayerCount: 2
Fore
SplineSet
1 6 m 1
 2 6 l 1
 2 11 l 1
 3 11 l 25
 3 12 l 25
 6 12 l 25
 6 10 l 25
 4 10 l 1
 4 0 l 5
 6 0 l 1
 6 -2 l 1
 3 -2 l 1
 3 -1 l 1
 2 -1 l 1
 2 4 l 1
 1 4 l 1
 1 6 l 1
EndSplineSet
Validated: 1
EndChar

StartChar: bar
Encoding: 124 124 46
Width: 4
Flags: HW
LayerCount: 2
Fore
SplineSet
1 12 m 25
 3 12 l 25
 3 0 l 25
 1 0 l 25
 1 12 l 25
EndSplineSet
Validated: 1
EndChar

StartChar: braceright
Encoding: 125 125 47
Width: 7
Flags: HW
LayerCount: 2
Fore
SplineSet
1 12 m 25
 4 12 l 25
 4 11 l 25
 5 11 l 1
 5 6 l 5
 6 6 l 1
 6 4 l 1
 5 4 l 1
 5 -1 l 1
 4 -1 l 1
 4 -2 l 1
 1 -2 l 1
 1 0 l 1
 3 0 l 1
 3 10 l 1
 1 10 l 25
 1 12 l 25
EndSplineSet
Validated: 1
EndChar

StartChar: asciitilde
Encoding: 126 126 48
Width: 14
Flags: HW
LayerCount: 2
Fore
SplineSet
1 6 m 25
 2 6 l 25
 2 7 l 25
 3 7 l 25
 3 8 l 25
 7 8 l 25
 7 7 l 25
 8 7 l 25
 8 6 l 25
 10 6 l 25
 10 7 l 25
 11 7 l 25
 11 8 l 25
 13 8 l 25
 13 6 l 25
 12 6 l 25
 12 5 l 25
 11 5 l 25
 11 4 l 25
 7 4 l 25
 7 5 l 25
 6 5 l 25
 6 6 l 25
 4 6 l 25
 4 5 l 25
 3 5 l 25
 3 4 l 25
 1 4 l 25
 1 6 l 25
EndSplineSet
Validated: 1
EndChar

StartChar: underscore
Encoding: 95 95 49
Width: 13
Flags: HW
LayerCount: 2
Fore
SplineSet
1 2 m 25
 12 2 l 25
 12 0 l 25
 1 0 l 25
 1 2 l 25
EndSplineSet
Validated: 1
EndChar

StartChar: asciicircum
Encoding: 94 94 50
Width: 9
Flags: HW
LayerCount: 2
Fore
SplineSet
1 9 m 25
 2 9 l 25
 2 10 l 25
 3 10 l 25
 3 11 l 25
 4 11 l 25
 4 12 l 25
 5 12 l 25
 5 11 l 25
 6 11 l 25
 6 10 l 25
 7 10 l 25
 7 9 l 25
 8 9 l 25
 8 7 l 25
 6 7 l 25
 6 8 l 25
 5 8 l 25
 5 9 l 25
 4 9 l 25
 4 8 l 25
 3 8 l 25
 3 7 l 25
 1 7 l 25
 1 9 l 25
EndSplineSet
Validated: 1
EndChar

StartChar: bracketright
Encoding: 93 93 51
Width: 7
Flags: HW
LayerCount: 2
Fore
SplineSet
1 12 m 25
 6 12 l 1
 6 -2 l 1
 1 -2 l 1
 1 0 l 1
 4 0 l 5
 4 10 l 1
 1 10 l 25
 1 12 l 25
EndSplineSet
Validated: 1
EndChar

StartChar: backslash
Encoding: 92 92 52
Width: 10
Flags: HW
LayerCount: 2
Fore
SplineSet
1 12 m 25
 3 12 l 25
 3 10 l 25
 4 10 l 25
 4 9 l 25
 5 9 l 25
 5 7 l 25
 6 7 l 25
 6 6 l 25
 7 6 l 25
 7 4 l 25
 8 4 l 25
 8 3 l 25
 9 3 l 1
 9 0 l 25
 7 0 l 25
 7 2 l 25
 6 2 l 25
 6 3 l 25
 5 3 l 25
 5 5 l 25
 4 5 l 25
 4 6 l 25
 3 6 l 25
 3 8 l 25
 2 8 l 25
 2 9 l 25
 1 9 l 25
 1 12 l 25
EndSplineSet
Validated: 1
EndChar

StartChar: bracketleft
Encoding: 91 91 53
Width: 7
Flags: HW
LayerCount: 2
Fore
SplineSet
1 12 m 1
 6 12 l 25
 6 10 l 25
 3 10 l 1
 3 0 l 5
 6 0 l 1
 6 -2 l 1
 1 -2 l 1
 1 12 l 1
EndSplineSet
Validated: 1
EndChar

StartChar: one
Encoding: 49 49 54
Width: 10
Flags: HW
LayerCount: 2
Fore
SplineSet
1 10 m 25
 2 10 l 25
 2 11 l 25
 3 11 l 25
 3 12 l 25
 6 12 l 25
 6 2 l 25
 9 2 l 25
 9 0 l 25
 1 0 l 25
 1 2 l 25
 4 2 l 25
 4 9 l 25
 3 9 l 25
 3 8 l 25
 1 8 l 25
 1 10 l 25
EndSplineSet
Validated: 1
EndChar

StartChar: two
Encoding: 50 50 55
Width: 11
Flags: HW
LayerCount: 2
Fore
SplineSet
1 10 m 25
 2 10 l 25
 2 11 l 25
 3 11 l 25
 3 12 l 25
 8 12 l 25
 8 11 l 25
 9 11 l 25
 9 10 l 25
 10 10 l 25
 10 6 l 25
 9 6 l 25
 9 5 l 25
 8 5 l 25
 8 4 l 25
 7 4 l 25
 7 3 l 25
 6 3 l 25
 6 2 l 25
 10 2 l 25
 10 0 l 25
 2 0 l 25
 2 2 l 25
 3 2 l 25
 3 3 l 25
 4 3 l 25
 4 4 l 25
 5 4 l 25
 5 5 l 25
 6 5 l 25
 6 6 l 25
 7 6 l 25
 7 7 l 25
 8 7 l 25
 8 9 l 25
 7 9 l 25
 7 10 l 25
 4 10 l 25
 4 9 l 25
 3 9 l 25
 3 8 l 25
 1 8 l 25
 1 10 l 25
EndSplineSet
Validated: 1
EndChar

StartChar: three
Encoding: 51 51 56
Width: 11
Flags: HW
LayerCount: 2
Fore
SplineSet
1 10 m 25
 2 10 l 25
 2 11 l 25
 3 11 l 25
 3 12 l 25
 8 12 l 25
 8 11 l 25
 9 11 l 25
 9 10 l 25
 10 10 l 25
 10 7 l 25
 9 7 l 25
 9 5 l 25
 10 5 l 25
 10 2 l 25
 9 2 l 25
 9 1 l 25
 8 1 l 25
 8 0 l 25
 3 0 l 25
 3 1 l 25
 2 1 l 25
 2 2 l 25
 1 2 l 25
 1 4 l 25
 3 4 l 25
 3 3 l 25
 4 3 l 25
 4 2 l 25
 7 2 l 25
 7 3 l 25
 8 3 l 25
 8 5 l 25
 5 5 l 25
 5 7 l 25
 8 7 l 25
 8 9 l 25
 7 9 l 25
 7 10 l 25
 4 10 l 25
 4 9 l 25
 3 9 l 25
 3 8 l 25
 1 8 l 25
 1 10 l 25
EndSplineSet
Validated: 1
EndChar

StartChar: four
Encoding: 52 52 57
Width: 11
Flags: HW
LayerCount: 2
Fore
SplineSet
3 7 m 25
 3 6 l 25
 6 6 l 25
 6 9 l 25
 5 9 l 25
 5 8 l 25
 4 8 l 25
 4 7 l 25
 3 7 l 25
1 8 m 25
 2 8 l 25
 2 9 l 25
 3 9 l 25
 3 10 l 25
 4 10 l 25
 4 11 l 25
 5 11 l 25
 5 12 l 25
 8 12 l 25
 8 6 l 25
 10 6 l 25
 10 4 l 25
 8 4 l 25
 8 0 l 25
 6 0 l 25
 6 4 l 25
 1 4 l 25
 1 8 l 25
EndSplineSet
Validated: 1
EndChar

StartChar: five
Encoding: 53 53 58
Width: 11
Flags: HW
LayerCount: 2
Fore
SplineSet
1 12 m 25
 10 12 l 25
 10 10 l 25
 3 10 l 25
 3 8 l 25
 8 8 l 25
 8 7 l 25
 9 7 l 25
 9 6 l 25
 10 6 l 25
 10 2 l 25
 9 2 l 25
 9 1 l 25
 8 1 l 25
 8 0 l 25
 3 0 l 25
 3 1 l 25
 2 1 l 25
 2 2 l 25
 1 2 l 25
 1 4 l 25
 3 4 l 25
 3 3 l 25
 4 3 l 25
 4 2 l 25
 7 2 l 25
 7 3 l 25
 8 3 l 25
 8 5 l 25
 7 5 l 25
 7 6 l 25
 1 6 l 25
 1 12 l 25
EndSplineSet
Validated: 1
EndChar

StartChar: six
Encoding: 54 54 59
Width: 11
Flags: HW
LayerCount: 2
Fore
SplineSet
3 5 m 25
 3 3 l 25
 4 3 l 25
 4 2 l 25
 7 2 l 25
 7 3 l 25
 8 3 l 25
 8 5 l 25
 7 5 l 25
 7 6 l 25
 4 6 l 25
 4 5 l 25
 3 5 l 25
1 10 m 25
 2 10 l 25
 2 11 l 25
 3 11 l 25
 3 12 l 25
 8 12 l 25
 8 11 l 25
 7 11 l 25
 7 10 l 25
 4 10 l 25
 4 9 l 25
 3 9 l 25
 3 7 l 25
 4 7 l 25
 4 8 l 25
 8 8 l 25
 8 7 l 25
 9 7 l 25
 9 6 l 25
 10 6 l 25
 10 2 l 25
 9 2 l 25
 9 1 l 25
 8 1 l 25
 8 0 l 25
 3 0 l 25
 3 1 l 25
 2 1 l 25
 2 2 l 25
 1 2 l 25
 1 10 l 25
EndSplineSet
Validated: 1
EndChar

StartChar: seven
Encoding: 55 55 60
Width: 11
Flags: HW
LayerCount: 2
Fore
SplineSet
1 12 m 25
 10 12 l 25
 10 10 l 25
 9 10 l 25
 9 8 l 25
 8 8 l 25
 8 6 l 25
 7 6 l 25
 7 4 l 25
 6 4 l 25
 6 2 l 25
 5 2 l 25
 5 0 l 25
 3 0 l 25
 3 3 l 25
 4 3 l 25
 4 5 l 25
 5 5 l 25
 5 7 l 25
 6 7 l 25
 6 9 l 25
 7 9 l 25
 7 10 l 25
 1 10 l 25
 1 12 l 25
EndSplineSet
Validated: 1
EndChar

StartChar: eight
Encoding: 56 56 61
Width: 11
Flags: HW
LayerCount: 2
Fore
SplineSet
3 4 m 25
 3 3 l 25
 4 3 l 25
 4 2 l 25
 7 2 l 25
 7 3 l 25
 8 3 l 25
 8 4 l 25
 7 4 l 25
 7 5 l 25
 4 5 l 25
 4 4 l 25
 3 4 l 25
3 9 m 25
 3 8 l 25
 4 8 l 25
 4 7 l 25
 7 7 l 25
 7 8 l 25
 8 8 l 25
 8 9 l 25
 7 9 l 25
 7 10 l 25
 4 10 l 25
 4 9 l 25
 3 9 l 25
1 10 m 25
 2 10 l 25
 2 11 l 25
 3 11 l 25
 3 12 l 25
 8 12 l 25
 8 11 l 25
 9 11 l 25
 9 10 l 25
 10 10 l 25
 10 7 l 25
 9 7 l 25
 9 6 l 25
 10 6 l 25
 10 2 l 25
 9 2 l 25
 9 1 l 25
 8 1 l 25
 8 0 l 25
 3 0 l 25
 3 1 l 25
 2 1 l 25
 2 2 l 25
 1 2 l 25
 1 6 l 25
 2 6 l 25
 2 7 l 25
 1 7 l 25
 1 10 l 25
EndSplineSet
Validated: 1
EndChar

StartChar: nine
Encoding: 57 57 62
Width: 11
Flags: HW
LayerCount: 2
Fore
SplineSet
3 9 m 25
 3 8 l 25
 4 8 l 25
 4 7 l 25
 7 7 l 25
 7 8 l 25
 8 8 l 25
 8 9 l 25
 7 9 l 25
 7 10 l 25
 4 10 l 25
 4 9 l 25
 3 9 l 25
1 10 m 25
 2 10 l 25
 2 11 l 25
 3 11 l 25
 3 12 l 25
 8 12 l 25
 8 11 l 25
 9 11 l 25
 9 10 l 25
 10 10 l 25
 10 2 l 25
 9 2 l 25
 9 1 l 25
 8 1 l 25
 8 0 l 25
 3 0 l 25
 3 1 l 25
 2 1 l 25
 2 2 l 25
 1 2 l 25
 1 4 l 25
 3 4 l 25
 3 3 l 25
 4 3 l 25
 4 2 l 25
 7 2 l 25
 7 3 l 25
 8 3 l 25
 8 6 l 25
 7 6 l 25
 7 5 l 25
 3 5 l 25
 3 6 l 25
 2 6 l 25
 2 7 l 25
 1 7 l 25
 1 10 l 25
EndSplineSet
Validated: 1
EndChar

StartChar: colon
Encoding: 58 58 63
Width: 4
Flags: HW
LayerCount: 2
Fore
SplineSet
1 4 m 25
 3 4 l 25
 3 2 l 25
 1 2 l 25
 1 4 l 25
1 10 m 25
 3 10 l 25
 3 8 l 25
 1 8 l 25
 1 10 l 25
EndSplineSet
Validated: 1
EndChar

StartChar: semicolon
Encoding: 59 59 64
Width: 4
Flags: HW
LayerCount: 2
Fore
SplineSet
1 4 m 29
 3 4 l 25
 3 1 l 25
 2 1 l 25
 2 -1 l 25
 0 -1 l 25
 0 2 l 25
 1 2 l 25
 1 4 l 29
1 10 m 25
 3 10 l 25
 3 8 l 25
 1 8 l 25
 1 10 l 25
EndSplineSet
Validated: 1
EndChar

StartChar: less
Encoding: 60 60 65
Width: 11
Flags: HW
LayerCount: 2
Fore
SplineSet
1 7 m 25
 3 7 l 25
 3 8 l 25
 5 8 l 25
 5 9 l 25
 7 9 l 25
 7 10 l 25
 10 10 l 25
 10 8 l 25
 8 8 l 25
 8 7 l 25
 5 7 l 25
 5 5 l 25
 8 5 l 25
 8 4 l 25
 10 4 l 25
 10 2 l 25
 7 2 l 25
 7 3 l 25
 5 3 l 25
 5 4 l 25
 3 4 l 25
 3 5 l 25
 1 5 l 25
 1 7 l 25
EndSplineSet
Validated: 1
EndChar

StartChar: equal
Encoding: 61 61 66
Width: 11
Flags: HW
LayerCount: 2
Fore
SplineSet
1 5 m 25
 10 5 l 25
 10 3 l 25
 1 3 l 25
 1 5 l 25
1 9 m 25
 10 9 l 25
 10 7 l 25
 1 7 l 25
 1 9 l 25
EndSplineSet
Validated: 1
EndChar

StartChar: greater
Encoding: 62 62 67
Width: 11
Flags: HW
LayerCount: 2
Fore
SplineSet
1 10 m 25
 4 10 l 25
 4 9 l 25
 6 9 l 25
 6 8 l 25
 8 8 l 25
 8 7 l 25
 10 7 l 25
 10 5 l 25
 8 5 l 25
 8 4 l 25
 6 4 l 25
 6 3 l 25
 4 3 l 25
 4 2 l 25
 1 2 l 25
 1 4 l 25
 3 4 l 25
 3 5 l 25
 6 5 l 25
 6 7 l 25
 3 7 l 25
 3 8 l 25
 1 8 l 25
 1 10 l 25
EndSplineSet
Validated: 1
EndChar

StartChar: question
Encoding: 63 63 68
Width: 10
Flags: HW
LayerCount: 2
Fore
SplineSet
4 2 m 25
 6 2 l 25
 6 0 l 25
 4 0 l 25
 4 2 l 25
1 10 m 25
 2 10 l 25
 2 11 l 25
 3 11 l 25
 3 12 l 25
 7 12 l 25
 7 11 l 25
 8 11 l 25
 8 10 l 25
 9 10 l 25
 9 7 l 25
 8 7 l 25
 8 6 l 25
 7 6 l 25
 7 5 l 25
 6 5 l 25
 6 4 l 25
 4 4 l 25
 4 6 l 25
 5 6 l 25
 5 7 l 25
 6 7 l 25
 6 8 l 25
 7 8 l 25
 7 9 l 25
 6 9 l 25
 6 10 l 1
 4 10 l 25
 4 9 l 25
 3 9 l 25
 3 8 l 25
 1 8 l 25
 1 10 l 25
EndSplineSet
Validated: 1
EndChar

StartChar: D
Encoding: 68 68 69
Width: 13
Flags: HW
LayerCount: 2
Fore
SplineSet
3 10 m 25
 3 2 l 25
 9 2 l 25
 9 3 l 25
 10 3 l 25
 10 9 l 25
 9 9 l 25
 9 10 l 25
 3 10 l 25
1 12 m 25
 10 12 l 25
 10 11 l 25
 11 11 l 25
 11 10 l 25
 12 10 l 25
 12 2 l 25
 11 2 l 25
 11 1 l 25
 10 1 l 25
 10 0 l 25
 1 0 l 25
 1 12 l 25
EndSplineSet
Validated: 1
EndChar

StartChar: E
Encoding: 69 69 70
Width: 11
Flags: HW
LayerCount: 2
Fore
SplineSet
1 12 m 25
 10 12 l 25
 10 10 l 25
 3 10 l 25
 3 7 l 25
 7 7 l 25
 7 5 l 25
 3 5 l 25
 3 2 l 25
 10 2 l 25
 10 0 l 25
 1 0 l 25
 1 12 l 25
EndSplineSet
Validated: 1
EndChar

StartChar: F
Encoding: 70 70 71
Width: 11
Flags: HW
LayerCount: 2
Fore
SplineSet
1 12 m 25
 10 12 l 25
 10 10 l 25
 3 10 l 25
 3 7 l 25
 7 7 l 25
 7 5 l 25
 3 5 l 25
 3 0 l 25
 1 0 l 25
 1 12 l 25
EndSplineSet
Validated: 1
EndChar

StartChar: B
Encoding: 66 66 72
Width: 11
Flags: HW
LayerCount: 2
Fore
SplineSet
3 5 m 25
 3 2 l 25
 8 2 l 25
 8 5 l 25
 3 5 l 25
3 10 m 25
 3 7 l 25
 8 7 l 25
 8 10 l 25
 3 10 l 25
1 12 m 25
 9 12 l 25
 9 11 l 25
 10 11 l 25
 10 7 l 25
 9 7 l 25
 9 5 l 25
 10 5 l 25
 10 1 l 25
 9 1 l 25
 9 0 l 25
 1 0 l 25
 1 12 l 25
EndSplineSet
Validated: 1
EndChar

StartChar: H
Encoding: 72 72 73
Width: 12
Flags: HW
LayerCount: 2
Fore
SplineSet
1 12 m 25
 3 12 l 25
 3 7 l 25
 9 7 l 25
 9 12 l 25
 11 12 l 25
 11 0 l 25
 9 0 l 25
 9 5 l 25
 3 5 l 25
 3 0 l 25
 1 0 l 25
 1 12 l 25
EndSplineSet
Validated: 1
EndChar

StartChar: I
Encoding: 73 73 74
Width: 10
Flags: HW
LayerCount: 2
Fore
SplineSet
1 12 m 25
 9 12 l 25
 9 10 l 25
 6 10 l 25
 6 2 l 25
 9 2 l 25
 9 0 l 25
 1 0 l 25
 1 2 l 1
 4 2 l 1
 4 10 l 1
 1 10 l 1
 1 12 l 25
EndSplineSet
Validated: 1
EndChar

StartChar: J
Encoding: 74 74 75
Width: 10
Flags: HW
LayerCount: 2
Fore
SplineSet
1 4 m 25
 3 4 l 25
 3 2 l 25
 5 2 l 25
 5 10 l 25
 2 10 l 25
 2 12 l 25
 9 12 l 25
 9 10 l 25
 7 10 l 25
 7 1 l 25
 6 1 l 25
 6 0 l 25
 2 0 l 25
 2 1 l 25
 1 1 l 25
 1 4 l 25
EndSplineSet
Validated: 1
EndChar

StartChar: K
Encoding: 75 75 76
Width: 11
Flags: HW
LayerCount: 2
Fore
SplineSet
1 12 m 25
 3 12 l 25
 3 7 l 25
 4 7 l 25
 4 8 l 25
 5 8 l 25
 5 9 l 25
 6 9 l 25
 6 10 l 25
 7 10 l 25
 7 11 l 25
 8 11 l 25
 8 12 l 25
 10 12 l 25
 10 10 l 25
 9 10 l 25
 9 9 l 25
 8 9 l 25
 8 8 l 25
 7 8 l 25
 7 7 l 25
 6 7 l 25
 6 6 l 25
 7 6 l 25
 7 5 l 25
 8 5 l 25
 8 4 l 25
 9 4 l 25
 9 3 l 25
 10 3 l 25
 10 0 l 25
 8 0 l 25
 8 2 l 25
 7 2 l 25
 7 3 l 25
 6 3 l 25
 6 4 l 25
 5 4 l 25
 5 5 l 25
 4 5 l 25
 4 4 l 25
 3 4 l 25
 3 0 l 25
 1 0 l 25
 1 12 l 25
EndSplineSet
Validated: 1
EndChar

StartChar: L
Encoding: 76 76 77
Width: 11
Flags: HW
LayerCount: 2
Fore
SplineSet
1 12 m 25
 3 12 l 25
 3 2 l 25
 10 2 l 25
 10 0 l 25
 1 0 l 25
 1 12 l 25
EndSplineSet
Validated: 1
EndChar

StartChar: M
Encoding: 77 77 78
Width: 13
Flags: HW
LayerCount: 2
Fore
SplineSet
1 12 m 25
 3 12 l 25
 3 10 l 25
 4 10 l 25
 4 9 l 25
 5 9 l 25
 5 8 l 25
 6 8 l 25
 6 7 l 25
 7 7 l 25
 7 8 l 25
 8 8 l 25
 8 9 l 25
 9 9 l 25
 9 10 l 25
 10 10 l 25
 10 12 l 25
 12 12 l 25
 12 0 l 25
 10 0 l 25
 10 7 l 25
 9 7 l 25
 9 6 l 25
 8 6 l 25
 8 5 l 25
 7 5 l 25
 7 4 l 25
 6 4 l 25
 6 5 l 25
 5 5 l 25
 5 6 l 25
 4 6 l 25
 4 7 l 25
 3 7 l 25
 3 0 l 25
 1 0 l 25
 1 12 l 25
EndSplineSet
Validated: 1
EndChar

StartChar: N
Encoding: 78 78 79
Width: 12
Flags: HW
LayerCount: 2
Fore
SplineSet
1 12 m 25
 3 12 l 25
 3 10 l 25
 4 10 l 25
 4 9 l 25
 5 9 l 25
 5 8 l 25
 6 8 l 25
 6 7 l 25
 7 7 l 25
 7 6 l 25
 8 6 l 25
 8 5 l 25
 9 5 l 25
 9 12 l 25
 11 12 l 25
 11 0 l 25
 9 0 l 25
 9 2 l 25
 8 2 l 25
 8 3 l 25
 7 3 l 25
 7 4 l 25
 6 4 l 25
 6 5 l 25
 5 5 l 25
 5 6 l 25
 4 6 l 25
 4 7 l 25
 3 7 l 25
 3 0 l 25
 1 0 l 25
 1 12 l 25
EndSplineSet
Validated: 1
EndChar

StartChar: O
Encoding: 79 79 80
Width: 13
Flags: HW
LayerCount: 2
Fore
SplineSet
3 9 m 25
 3 3 l 25
 4 3 l 25
 4 2 l 25
 9 2 l 25
 9 3 l 25
 10 3 l 25
 10 9 l 25
 9 9 l 25
 9 10 l 25
 4 10 l 25
 4 9 l 25
 3 9 l 25
1 10 m 25
 2 10 l 25
 2 11 l 25
 3 11 l 25
 3 12 l 25
 10 12 l 25
 10 11 l 25
 11 11 l 25
 11 10 l 25
 12 10 l 25
 12 2 l 25
 11 2 l 25
 11 1 l 25
 10 1 l 25
 10 0 l 25
 3 0 l 25
 3 1 l 25
 2 1 l 25
 2 2 l 25
 1 2 l 25
 1 10 l 25
EndSplineSet
Validated: 1
EndChar

StartChar: P
Encoding: 80 80 81
Width: 12
Flags: HW
LayerCount: 2
Fore
SplineSet
3 10 m 25
 3 7 l 25
 8 7 l 25
 8 8 l 25
 9 8 l 25
 9 9 l 25
 8 9 l 25
 8 10 l 25
 3 10 l 25
1 12 m 25
 9 12 l 25
 9 11 l 25
 10 11 l 25
 10 10 l 25
 11 10 l 25
 11 7 l 25
 10 7 l 25
 10 6 l 25
 9 6 l 25
 9 5 l 25
 3 5 l 25
 3 0 l 25
 1 0 l 25
 1 12 l 25
EndSplineSet
Validated: 1
EndChar

StartChar: Q
Encoding: 81 81 82
Width: 12
Flags: HW
LayerCount: 2
Fore
SplineSet
3 9 m 25
 3 3 l 25
 4 3 l 25
 4 2 l 25
 7 2 l 25
 7 3 l 25
 6 3 l 25
 6 4 l 25
 5 4 l 25
 5 6 l 25
 7 6 l 25
 7 5 l 25
 8 5 l 25
 8 4 l 25
 9 4 l 25
 9 9 l 25
 8 9 l 25
 8 10 l 25
 4 10 l 25
 4 9 l 25
 3 9 l 25
1 10 m 25
 2 10 l 25
 2 11 l 25
 3 11 l 25
 3 12 l 25
 9 12 l 25
 9 11 l 25
 10 11 l 25
 10 10 l 25
 11 10 l 25
 11 3 l 25
 10 3 l 25
 10 2 l 25
 11 2 l 25
 11 0 l 25
 9 0 l 25
 9 1 l 25
 8 1 l 25
 8 0 l 25
 3 0 l 25
 3 1 l 25
 2 1 l 25
 2 2 l 25
 1 2 l 25
 1 10 l 25
EndSplineSet
Validated: 1
EndChar

StartChar: R
Encoding: 82 82 83
Width: 12
Flags: HW
LayerCount: 2
Fore
SplineSet
3 10 m 25
 3 7 l 25
 8 7 l 25
 8 8 l 25
 9 8 l 25
 9 9 l 25
 8 9 l 25
 8 10 l 25
 3 10 l 25
1 12 m 25
 9 12 l 25
 9 11 l 25
 10 11 l 25
 10 10 l 25
 11 10 l 25
 11 7 l 25
 10 7 l 25
 10 6 l 25
 9 6 l 25
 9 5 l 25
 7 5 l 25
 7 4 l 25
 8 4 l 25
 8 3 l 25
 9 3 l 25
 9 2 l 25
 10 2 l 25
 10 0 l 25
 8 0 l 25
 8 1 l 25
 7 1 l 25
 7 2 l 25
 6 2 l 25
 6 3 l 25
 5 3 l 25
 5 4 l 25
 4 4 l 25
 4 5 l 25
 3 5 l 25
 3 0 l 25
 1 0 l 25
 1 12 l 25
EndSplineSet
Validated: 1
EndChar

StartChar: S
Encoding: 83 83 84
Width: 12
Flags: HW
LayerCount: 2
Fore
SplineSet
1 10 m 25
 2 10 l 25
 2 11 l 25
 3 11 l 25
 3 12 l 25
 9 12 l 25
 9 11 l 25
 10 11 l 25
 10 10 l 25
 11 10 l 25
 11 8 l 25
 9 8 l 25
 9 9 l 25
 8 9 l 25
 8 10 l 25
 4 10 l 25
 4 9 l 25
 3 9 l 25
 3 8 l 25
 4 8 l 25
 4 7 l 25
 9 7 l 25
 9 6 l 25
 10 6 l 25
 10 5 l 25
 11 5 l 25
 11 2 l 25
 10 2 l 25
 10 1 l 25
 9 1 l 25
 9 0 l 25
 3 0 l 25
 3 1 l 25
 2 1 l 25
 2 2 l 25
 1 2 l 25
 1 4 l 25
 3 4 l 25
 3 3 l 25
 4 3 l 25
 4 2 l 25
 8 2 l 25
 8 3 l 25
 9 3 l 25
 9 4 l 25
 8 4 l 25
 8 5 l 25
 3 5 l 25
 3 6 l 25
 2 6 l 25
 2 7 l 25
 1 7 l 25
 1 10 l 25
EndSplineSet
Validated: 1
EndChar

StartChar: T
Encoding: 84 84 85
Width: 12
Flags: HW
LayerCount: 2
Fore
SplineSet
1 12 m 25
 11 12 l 25
 11 10 l 25
 7 10 l 25
 7 0 l 25
 5 0 l 25
 5 10 l 25
 1 10 l 25
 1 12 l 25
EndSplineSet
Validated: 1
EndChar

StartChar: U
Encoding: 85 85 86
Width: 13
Flags: HW
LayerCount: 2
Fore
SplineSet
1 12 m 25
 3 12 l 25
 3 3 l 25
 4 3 l 25
 4 2 l 25
 8 2 l 25
 8 3 l 25
 9 3 l 25
 9 12 l 25
 11 12 l 25
 11 2 l 25
 12 2 l 25
 12 0 l 25
 10 0 l 25
 10 1 l 25
 9 1 l 25
 9 0 l 25
 3 0 l 25
 3 1 l 25
 2 1 l 25
 2 2 l 25
 1 2 l 25
 1 12 l 25
EndSplineSet
Validated: 1
EndChar

StartChar: V
Encoding: 86 86 87
Width: 13
Flags: HW
LayerCount: 2
Fore
SplineSet
1 12 m 25
 3 12 l 25
 3 9 l 25
 4 9 l 25
 4 7 l 25
 5 7 l 25
 5 5 l 25
 6 5 l 25
 6 3 l 25
 7 3 l 25
 7 5 l 25
 8 5 l 25
 8 7 l 25
 9 7 l 25
 9 9 l 25
 10 9 l 25
 10 12 l 25
 12 12 l 25
 12 8 l 25
 11 8 l 25
 11 6 l 25
 10 6 l 25
 10 4 l 25
 9 4 l 25
 9 2 l 25
 8 2 l 25
 8 0 l 25
 5 0 l 25
 5 2 l 25
 4 2 l 25
 4 4 l 25
 3 4 l 25
 3 6 l 25
 2 6 l 25
 2 8 l 25
 1 8 l 25
 1 12 l 25
EndSplineSet
Validated: 1
EndChar

StartChar: W
Encoding: 87 87 88
Width: 16
Flags: HW
LayerCount: 2
Fore
SplineSet
1 12 m 25
 3 12 l 25
 3 9 l 25
 4 9 l 25
 4 6 l 25
 5 6 l 25
 5 3 l 25
 6 3 l 25
 6 5 l 25
 7 5 l 25
 7 7 l 25
 9 7 l 25
 9 5 l 25
 10 5 l 25
 10 3 l 25
 11 3 l 25
 11 6 l 25
 12 6 l 25
 12 9 l 25
 13 9 l 25
 13 12 l 25
 15 12 l 25
 15 8 l 25
 14 8 l 25
 14 5 l 25
 13 5 l 25
 13 2 l 25
 12 2 l 25
 12 0 l 25
 10 0 l 25
 10 1 l 25
 9 1 l 25
 9 3 l 25
 7 3 l 25
 7 1 l 25
 6 1 l 25
 6 0 l 25
 4 0 l 25
 4 2 l 25
 3 2 l 25
 3 5 l 25
 2 5 l 25
 2 8 l 25
 1 8 l 25
 1 12 l 25
EndSplineSet
Validated: 1
EndChar

StartChar: X
Encoding: 88 88 89
Width: 12
Flags: HW
LayerCount: 2
Fore
SplineSet
1 12 m 25
 3 12 l 25
 3 10 l 25
 4 10 l 25
 4 9 l 25
 5 9 l 25
 5 8 l 25
 7 8 l 25
 7 9 l 25
 8 9 l 25
 8 10 l 25
 9 10 l 25
 9 12 l 25
 11 12 l 25
 11 9 l 25
 10 9 l 25
 10 8 l 25
 9 8 l 25
 9 7 l 25
 8 7 l 25
 8 5 l 25
 9 5 l 25
 9 4 l 25
 10 4 l 25
 10 3 l 25
 11 3 l 25
 11 0 l 25
 9 0 l 25
 9 2 l 25
 8 2 l 25
 8 3 l 25
 7 3 l 25
 7 4 l 25
 5 4 l 25
 5 3 l 25
 4 3 l 25
 4 2 l 25
 3 2 l 25
 3 0 l 25
 1 0 l 25
 1 3 l 25
 2 3 l 25
 2 4 l 25
 3 4 l 25
 3 5 l 25
 4 5 l 25
 4 7 l 25
 3 7 l 25
 3 8 l 25
 2 8 l 25
 2 9 l 25
 1 9 l 25
 1 12 l 25
EndSplineSet
Validated: 1
EndChar

StartChar: Y
Encoding: 89 89 90
Width: 12
Flags: HW
LayerCount: 2
Fore
SplineSet
1 12 m 25
 3 12 l 25
 3 10 l 25
 4 10 l 25
 4 9 l 25
 5 9 l 25
 5 8 l 25
 7 8 l 25
 7 9 l 25
 8 9 l 25
 8 10 l 25
 9 10 l 25
 9 12 l 25
 11 12 l 25
 11 9 l 25
 10 9 l 25
 10 8 l 25
 9 8 l 25
 9 7 l 25
 8 7 l 25
 8 6 l 25
 7 6 l 25
 7 0 l 25
 5 0 l 25
 5 6 l 25
 4 6 l 25
 4 7 l 25
 3 7 l 25
 3 8 l 25
 2 8 l 25
 2 9 l 25
 1 9 l 25
 1 12 l 25
EndSplineSet
Validated: 1
EndChar

StartChar: Z
Encoding: 90 90 91
Width: 12
Flags: HW
LayerCount: 2
Fore
SplineSet
1 12 m 25
 11 12 l 25
 11 9 l 25
 10 9 l 25
 10 8 l 25
 9 8 l 25
 9 7 l 25
 8 7 l 25
 8 6 l 25
 7 6 l 25
 7 5 l 25
 6 5 l 25
 6 4 l 25
 5 4 l 25
 5 3 l 25
 4 3 l 25
 4 2 l 25
 11 2 l 25
 11 0 l 25
 1 0 l 25
 1 3 l 25
 2 3 l 25
 2 4 l 25
 3 4 l 25
 3 5 l 25
 4 5 l 25
 4 6 l 25
 5 6 l 25
 5 7 l 25
 6 7 l 25
 6 8 l 25
 7 8 l 25
 7 9 l 25
 8 9 l 25
 8 10 l 25
 1 10 l 25
 1 12 l 25
EndSplineSet
Validated: 1
EndChar

StartChar: at
Encoding: 64 64 92
Width: 13
Flags: HW
LayerCount: 2
Fore
SplineSet
6 7 m 25
 6 5 l 25
 7 5 l 25
 7 7 l 25
 6 7 l 25
1 10 m 25
 2 10 l 25
 2 11 l 25
 3 11 l 25
 3 12 l 25
 11 12 l 25
 11 11 l 25
 12 11 l 25
 12 4 l 25
 11 4 l 25
 11 3 l 25
 5 3 l 25
 5 4 l 25
 4 4 l 25
 4 8 l 25
 5 8 l 25
 5 9 l 25
 9 9 l 25
 9 5 l 25
 10 5 l 25
 10 10 l 25
 4 10 l 25
 4 9 l 25
 3 9 l 25
 3 3 l 25
 4 3 l 25
 4 2 l 25
 12 2 l 25
 12 1 l 25
 11 1 l 25
 11 0 l 25
 3 0 l 25
 3 1 l 25
 2 1 l 25
 2 2 l 25
 1 2 l 25
 1 10 l 25
EndSplineSet
Validated: 1
EndChar

StartChar: C
Encoding: 67 67 93
Width: 13
Flags: HW
LayerCount: 2
Fore
SplineSet
1 10 m 25
 2 10 l 25
 2 11 l 25
 3 11 l 25
 3 12 l 25
 10 12 l 25
 10 11 l 25
 11 11 l 25
 11 10 l 25
 12 10 l 25
 12 8 l 25
 10 8 l 25
 10 9 l 25
 9 9 l 25
 9 10 l 25
 4 10 l 25
 4 9 l 25
 3 9 l 25
 3 3 l 25
 4 3 l 25
 4 2 l 25
 9 2 l 25
 9 3 l 25
 10 3 l 25
 10 5 l 25
 12 5 l 25
 12 2 l 25
 11 2 l 25
 11 1 l 25
 10 1 l 25
 10 0 l 25
 3 0 l 25
 3 1 l 25
 2 1 l 25
 2 2 l 25
 1 2 l 25
 1 10 l 25
EndSplineSet
Validated: 1
EndChar

StartChar: G
Encoding: 71 71 94
Width: 14
Flags: HW
LayerCount: 2
Fore
SplineSet
1 10 m 25
 2 10 l 25
 2 11 l 25
 3 11 l 25
 3 12 l 25
 10 12 l 25
 10 11 l 25
 11 11 l 25
 11 10 l 25
 12 10 l 25
 12 8 l 25
 10 8 l 25
 10 9 l 25
 9 9 l 25
 9 10 l 25
 4 10 l 25
 4 9 l 25
 3 9 l 25
 3 3 l 25
 4 3 l 25
 4 2 l 25
 9 2 l 25
 9 3 l 25
 10 3 l 25
 10 4 l 25
 8 4 l 25
 8 6 l 25
 13 6 l 25
 13 4 l 25
 12 4 l 25
 12 2 l 25
 11 2 l 25
 11 1 l 25
 10 1 l 25
 10 0 l 25
 3 0 l 25
 3 1 l 25
 2 1 l 25
 2 2 l 25
 1 2 l 25
 1 10 l 25
EndSplineSet
Validated: 1
EndChar
